<?xml version="1.0" encoding="UTF-8" standalone="no"?>
<!-- Generator: Adobe Fireworks 10, Export SVG Extension by Aaron Beall (http://fireworks.abeall.com) . Version: 0.6.1  -->
<!DOCTYPE svg PUBLIC "-//W3C//DTD SVG 1.1//EN" "http://www.w3.org/Graphics/SVG/1.1/DTD/svg11.dtd">
<svg id="Untitled-Page%201" viewBox="0 0 800 400" style="background-color:#ffffff00" version="1.1" xmlns="http://www.w3.org/2000/svg" xmlns:xlink="http://www.w3.org/1999/xlink" xml:space="preserve" x="0px" y="0px" width="800px" height="400px">
	<path opacity="0.102" d="M 315.1588 100.0571 C 327.8112 101.2064 320.9099 87.4159 323.2103 85.1175 L 323.2103 38 L 324.3605 83.9683 C 325.5107 83.9683 327.8112 82.819 328.9614 83.9683 C 327.8112 85.1175 325.5107 83.9683 324.3605 85.1175 L 324.3605 100.0571 C 326.6609 100.0571 330.1116 101.2064 333.5623 102.3556 L 333.5623 156.3683 L 339.3133 156.3683 L 339.3133 165.5619 L 346.2146 165.5619 L 346.2146 228.7682 L 353.1158 228.7682 L 353.1158 326.4508 L 374.97 326.4508 L 374.97 278.1841 C 381.8712 278.1841 388.7725 278.1841 395.6738 277.0349 C 400.2747 273.5873 396.824 273.5873 402.5751 273.5873 C 404.8755 273.5873 411.7769 274.7365 416.3777 274.7365 C 416.3777 277.0349 417.5279 280.4825 417.5279 312.6603 C 418.6781 312.6603 417.5279 313.8095 420.9785 313.8095 C 423.2789 313.8095 423.2789 312.6603 424.4292 311.5111 L 424.4292 234.5143 L 432.4807 234.5143 L 432.4807 224.1714 L 443.9828 224.1714 C 445.1331 225.3206 445.1331 227.619 446.2833 229.9175 L 453.1846 229.9175 C 453.1846 226.4698 450.8842 223.0222 455.485 219.5746 C 457.7854 221.873 457.7854 225.3206 457.7854 228.7682 C 458.9356 229.9175 460.0858 229.9175 460.0858 229.9175 C 461.2361 232.2159 460.0858 234.5143 461.2361 236.8127 L 464.6867 236.8127 C 465.8369 235.6635 465.8369 232.2159 468.1373 231.0667 L 468.1373 274.7365 C 473.8884 274.7365 479.6395 274.7365 484.2404 274.7365 C 486.5408 282.7809 493.442 277.0349 501.4935 279.3333 L 501.4935 291.9746 L 512.9957 291.9746 C 514.1459 287.3778 514.1459 281.6317 512.9957 275.8857 L 525.6481 275.8857 L 525.6481 233.3651 C 533.6996 232.2159 547.5021 229.9175 550.9528 229.9175 C 553.2532 229.9175 555.5536 229.9175 557.8541 229.9175 C 586.6094 231.0667 593.5107 232.2159 599.2618 231.0667 L 600.412 229.9175 L 600.412 282.7809 L 609.6137 282.7809 L 609.6137 257.4984 L 639.5193 257.4984 L 639.5193 297.7206 C 640.6696 297.7206 640.6696 298.8698 642.97 298.8698 C 646.4206 298.8698 646.4206 297.7206 647.5708 296.5714 L 647.5708 218.4254 C 661.3734 213.8286 686.6781 201.1873 705.0815 201.1873 L 709.6824 201.1873 L 709.6824 240.2603 L 722.3348 240.2603 C 723.485 235.6635 723.485 231.0667 722.3348 226.4698 L 751.0901 226.4698 L 751.0901 277.0349 L 775.2446 277.0349 L 775.2446 306.9143 L 795.9485 306.9143 L 795.9485 250 L 804 250 L 804 400 L 0 400 L 0 249.454 L 12.6524 249.454 C 13.8026 250.6032 13.8026 251.7524 14.9528 252.9016 L 48.309 252.9016 L 48.309 282.7809 L 60.9614 282.7809 L 60.9614 306.9143 C 63.2618 309.2127 65.5622 312.6603 67.8627 314.9587 C 69.0129 310.3619 69.0129 304.6159 67.8627 298.8698 L 81.6652 298.8698 L 81.6652 321.854 L 93.1674 321.854 L 95.4678 319.5555 L 95.4678 294.273 C 104.6695 294.273 115.0215 294.273 126.5236 294.273 L 126.5236 288.527 C 127.6738 288.527 128.824 288.527 129.9742 287.3778 C 131.1245 289.6762 131.1245 293.1238 131.1245 297.7206 L 139.176 297.7206 L 139.176 318.4063 L 159.8798 318.4063 C 163.3305 314.9587 161.03 311.5111 162.1802 308.0635 L 189.7854 308.0635 L 189.7854 290.8254 L 201.2875 290.8254 C 201.2875 286.2286 201.2875 280.4825 201.2875 275.8857 L 201.2875 290.8254 L 217.3906 290.8254 L 217.3906 267.8413 C 218.5408 267.8413 219.691 267.8413 220.8412 266.6921 L 220.8412 217.2762 C 230.0429 213.8286 218.5408 209.2318 231.1931 209.2318 C 231.1931 203.4857 232.3434 196.5905 231.1931 190.8445 L 233.4936 202.3365 L 244.9957 202.3365 C 244.9957 203.4857 243.8455 212.6794 249.5966 211.5302 C 249.5966 211.5302 250.7468 214.9778 254.1974 217.2762 L 254.1974 271.2889 C 256.4979 273.5873 255.3477 272.4381 263.3991 272.4381 L 263.3991 311.5111 L 278.3519 311.5111 L 278.3519 319.5555 L 293.3047 319.5555 L 293.3047 233.3651 C 294.455 233.3651 296.7554 233.3651 297.9056 232.2159 L 297.9056 159.8159 L 304.8069 159.8159 L 304.8069 105.8032 C 310.558 100.0571 307.1073 85.1175 308.2575 78.2222 C 308.2575 81.6698 308.2575 85.1175 309.4077 88.5651 L 314.0085 87.4159 L 314.0085 38 L 315.1588 100.0571 ZM 312.8584 89.7143 L 312.8584 101.2064 C 311.7081 101.2064 310.558 102.3556 309.4077 102.3556 L 309.4077 89.7143 L 312.8584 89.7143 Z" fill="#000000"/>
</svg>