<svg id="Laag_1" data-name="Laag 1" xmlns="http://www.w3.org/2000/svg" viewBox="0 0 245 215"><defs><style>.cls-1{fill:#fff;fill-rule:evenodd;}</style></defs><path class="cls-1" d="M848.22,530.57a27.65,27.65,0,0,0,14.42,4.15c11.93,0,24.75-7.73,27.14-24.67v-5.64L899.32,431H862.94a10.2,10.2,0,0,0-7.46,4.16,7.13,7.13,0,0,0-1.79,3.27c-3,10.4-5.66,21.4-8.35,32.1a82.57,82.57,0,0,0-2.38,9.21c-1.2,4.75-2.39,10.1-3.88,14.86-1.19,4.75-3.58,13.07-3.58,14A25.94,25.94,0,0,0,848.22,530.57Zm51.4-23.77v3.91a43.67,43.67,0,0,0,1.79,7.73c5.67,12.18,15.81,16.34,25.05,16.34,11.33,0,23.56-7.43,26.54-23.18V431.06H909.46L899.62,506Zm63.67,0v2.72a28.42,28.42,0,0,0,.9,6c4.17,14,15.8,19.31,25.94,19.31,12.83,0,26-9.51,26.85-26.15l-.24-1.83-9.9-75.74H963.29Zm63.68,0c.41,3.6.31,7.61,1.94,11.38,5.36,12.18,15.5,16.64,24.75,16.64a27.84,27.84,0,0,0,14.77-4.34A25.24,25.24,0,0,0,1080.5,509c0-4.46-14.91-57.36-16.4-65.09-.9-4.75-3.88-12.78-10.74-12.78h-36.09v1.79c0,.59,4.18,30.61,6,45.76,1.19,8.62,2.68,17.83,3.58,27.05ZM976,591.73a37,37,0,0,1,3.24-15.15l17.82,48.65A37.21,37.21,0,0,1,976,591.73Zm62.57-1.88c0,3.19-1.23,6.89-2.84,12l-3.73,12.4-13.5-40c2.25-.12,4.28-.35,4.28-.35a1.54,1.54,0,0,0-.24-3.07s-6.05.47-10,.47c-3.67,0-9.83-.47-9.83-.47a1.54,1.54,0,0,0-.24,3.07s1.91.23,3.92.35l5.82,15.89-8.18,24.43-13.6-40.32c2.25-.12,4.28-.35,4.28-.35a1.54,1.54,0,0,0-.24-3.07s-6,.47-10,.47c-.7,0-1.53,0-2.4,0a37.42,37.42,0,0,1,56.43-7l-.48,0a6.46,6.46,0,0,0-6.28,6.61c0,3.07,1.78,5.66,3.67,8.73A19.55,19.55,0,0,1,1038.61,589.85ZM1014.05,595l11.48,31.34a3.63,3.63,0,0,0,.27.52,37.47,37.47,0,0,1-23,.59Zm32.12-21.12a37.14,37.14,0,0,1-14,50L1043.58,591a35,35,0,0,0,2.84-13.33A28.65,28.65,0,0,0,1046.17,573.87Zm-32.77,59.26a41.4,41.4,0,1,0-41.55-41.4A41.52,41.52,0,0,0,1013.4,633.13Zm8.63-107a36.89,36.89,0,0,1-31.9,18.49c-10.93,0-24.88-5.25-32.18-18.72a35.85,35.85,0,0,1-31.79,18.72,36.63,36.63,0,0,1-31.57-18.46,36.32,36.32,0,0,1-32,18.4,38.23,38.23,0,0,1-14.42-2.71v88.1A16.16,16.16,0,0,0,864.36,646h187.93a16.16,16.16,0,0,0,16.14-16.08V541.47A36.22,36.22,0,0,1,1022,526.1Zm-8.63,22.24a43.39,43.39,0,1,1-43.55,43.39A43.52,43.52,0,0,1,1013.4,548.34Z" transform="translate(-835.5 -431)"/></svg>